<?xml version="1.0" encoding="utf-8"?>
<!-- Generator: Adobe Illustrator 16.0.0, SVG Export Plug-In . SVG Version: 6.00 Build 0)  -->
<!DOCTYPE svg PUBLIC "-//W3C//DTD SVG 1.1//EN" "http://www.w3.org/Graphics/SVG/1.1/DTD/svg11.dtd">
<svg version="1.1" id="Layer_1" xmlns="http://www.w3.org/2000/svg" xmlns:xlink="http://www.w3.org/1999/xlink" x="0px" y="0px"
	 width="128px" height="128px" viewBox="0 0 128 128" enable-background="new 0 0 128 128" xml:space="preserve">
<g>
	<g>
		<g>
			<g>
				<g>
					<g>
						<g>
							<path fill="#282D33" d="M64.009,127.279c-12.742,0-25.029-3.71-35.611-10.741l-21.239,9.813l7.35-22.283
								C5.145,92.783,0,78.601,0,64.001C0,29.108,28.714,0.722,64.009,0.722v4C30.92,4.722,4,31.314,4,64.001
								c0,14.02,5.069,27.631,14.273,38.325l0.738,0.857l-5.169,15.673l14.939-6.901l0.939,0.647
								c10.122,6.985,21.979,10.677,34.289,10.677C97.088,123.277,124,96.686,124,64.001h4
								C128,98.891,99.294,127.277,64.009,127.279z"/>
						</g>
					</g>
				</g>
			</g>
		</g>
		<g>
			<g>
				<path fill="#282D33" d="M128,64.001h-4c0-0.631-0.012-1.259-0.03-1.885l3.998-0.121C127.988,62.661,128,63.33,128,64.001z"/>
			</g>
			<g>
				<path fill="#282D33" d="M123.718,58.218c-0.13-1.321-0.307-2.661-0.527-3.981l3.945-0.658c0.235,1.409,0.425,2.839,0.563,4.25
					L123.718,58.218z M122.391,50.305c-0.308-1.286-0.667-2.588-1.067-3.87l3.818-1.193c0.428,1.368,0.811,2.759,1.14,4.133
					L122.391,50.305z M119.991,42.646c-0.484-1.237-1.02-2.479-1.591-3.691l3.619-1.705c0.609,1.293,1.18,2.619,1.696,3.939
					L119.991,42.646z M116.562,35.386c-0.65-1.164-1.35-2.32-2.078-3.438l3.352-2.185c0.777,1.192,1.523,2.428,2.219,3.67
					L116.562,35.386z M112.177,28.658c-0.8-1.063-1.648-2.114-2.523-3.127l3.027-2.615c0.933,1.08,1.839,2.203,2.691,3.336
					L112.177,28.658z M106.928,22.58c-0.938-0.948-1.92-1.877-2.919-2.761l2.65-2.996c1.065,0.942,2.113,1.934,3.112,2.944
					L106.928,22.58z M100.913,17.259c-1.058-0.815-2.154-1.605-3.26-2.347l2.229-3.322c1.179,0.791,2.348,1.633,3.475,2.503
					L100.913,17.259z M94.244,12.789c-1.152-0.665-2.344-1.302-3.542-1.892l1.766-3.589c1.278,0.629,2.549,1.307,3.776,2.017
					L94.244,12.789z M87.043,9.247c-1.233-0.507-2.498-0.979-3.761-1.401l1.271-3.793c1.346,0.451,2.695,0.954,4.011,1.495
					L87.043,9.247z M79.433,6.697c-1.292-0.338-2.609-0.637-3.918-0.888l0.754-3.929c1.396,0.268,2.801,0.587,4.178,0.947
					L79.433,6.697z M71.545,5.184c-1.23-0.152-2.477-0.269-3.704-0.344l0.246-3.992c1.31,0.08,2.639,0.203,3.95,0.366L71.545,5.184z
					"/>
			</g>
			<g>
				<path fill="#282D33" d="M65.893,4.75c-0.625-0.02-1.253-0.029-1.884-0.029v-4c0.672,0,1.341,0.011,2.007,0.031L65.893,4.75z"/>
			</g>
		</g>
	</g>
	<g>
		<g>
			<g>
				<g>
					<path fill="#282D33" d="M66.225,82.803h-12.89v-4h12.89c3.994,0,7.244-3.2,7.244-7.135c0-3.932-3.25-7.13-7.244-7.13H54.786v-4
						h11.438c6.2,0,11.244,4.993,11.244,11.13C77.469,77.808,72.425,82.803,66.225,82.803z"/>
				</g>
				<g>
					<path fill="#282D33" d="M63.058,64.539h-8.271v-4h8.271c3.191,0,5.788-2.557,5.788-5.699c0-3.142-2.597-5.698-5.788-5.698
						h-9.722v-4h9.722c5.397,0,9.788,4.351,9.788,9.698S68.455,64.539,63.058,64.539z"/>
				</g>
			</g>
			<g>
				<rect x="53.417" y="44.605" fill="#282D33" width="4" height="38.791"/>
			</g>
		</g>
		<g>
			<g>
				<path fill="#282D33" d="M47.019,83.396h-4V55.376c0-3.437-2.84-6.232-6.33-6.232c-3.492,0-6.332,2.796-6.332,6.232v28.021h-4
					V55.376c0-5.643,4.635-10.232,10.332-10.232c5.696,0,10.33,4.59,10.33,10.232V83.396z"/>
			</g>
			<g>
				<rect x="28.885" y="60.042" fill="#282D33" width="16.512" height="4"/>
			</g>
		</g>
		<g>
			<path fill="#282D33" d="M91.389,83.866c-5.655,0-10.256-4.557-10.256-10.158V54.942c0-5.601,4.601-10.156,10.256-10.156
				c5.654,0,10.254,4.556,10.254,10.156h-4c0-3.395-2.806-6.156-6.254-6.156c-3.449,0-6.256,2.762-6.256,6.156v18.766
				c0,3.396,2.807,6.158,6.256,6.158c3.448,0,6.254-2.763,6.254-6.158h4C101.643,79.31,97.043,83.866,91.389,83.866z"/>
		</g>
	</g>
</g>
</svg>
