<svg xmlns="http://www.w3.org/2000/svg" viewBox="0 0 48 48"><defs><style>.cls-1{fill:#1e0f00;}</style></defs><title>Asset 41</title><g id="Layer_2" data-name="Layer 2"><g id="_1" data-name="1"><path class="cls-1" d="M9.86,43.38a1,1,0,0,1-.71-.29L4.91,38.85a1,1,0,0,1-.09-1.32l2.24-2.9a19.94,19.94,0,0,1-2.55-6.16L.87,28A1,1,0,0,1,0,27V21a1,1,0,0,1,.87-1l3.64-.48a19.94,19.94,0,0,1,2.55-6.16l-2.24-2.9a1,1,0,0,1,.09-1.32L9.15,4.91a1,1,0,0,1,1.32-.09l2.9,2.24a19.94,19.94,0,0,1,6.16-2.55L20,.87A1,1,0,0,1,21,0h6a1,1,0,0,1,1,.87l.48,3.64a19.94,19.94,0,0,1,6.16,2.55l2.9-2.24a1,1,0,0,1,1.32.09l4.24,4.24a1,1,0,0,1,.09,1.32l-2.24,2.9a20,20,0,0,1,2.35,5.36l-1.93.53a18.09,18.09,0,0,0-2.47-5.37,1,1,0,0,1,0-1.17l2.14-2.78-3-3L35.28,9.08a1,1,0,0,1-1.17,0,17.81,17.81,0,0,0-6.73-2.78,1,1,0,0,1-.8-.86L26.12,2H21.88l-.46,3.47a1,1,0,0,1-.8.86,17.81,17.81,0,0,0-6.73,2.78,1,1,0,0,1-1.17,0L9.94,6.94l-3,3,2.14,2.78a1,1,0,0,1,0,1.17,17.81,17.81,0,0,0-2.78,6.73,1,1,0,0,1-.86.8L2,21.88v4.24l3.47.46a1,1,0,0,1,.86.8,17.81,17.81,0,0,0,2.78,6.73,1,1,0,0,1,0,1.17L6.94,38.06l3,3,2.78-2.14a1,1,0,0,1,1.17,0,17.71,17.71,0,0,0,5.37,2.47l-.52,1.93a20,20,0,0,1-5.37-2.35l-2.9,2.24A1,1,0,0,1,9.86,43.38Z"/><path class="cls-1" d="M18.61,36.92A14,14,0,1,1,36.93,18.61l-1.85.77a12,12,0,1,0-15.7,15.7Z"/><path class="cls-1" d="M36.17,39.55l-4-6a1,1,0,0,1,.08-1.21l8-9,1.5,1.32-7.49,8.43,3.57,5.36Z"/><rect class="cls-1" x="22" y="32" width="2" height="2"/><rect class="cls-1" x="32" y="42" width="2" height="2"/><rect class="cls-1" x="32" y="22" width="2" height="2"/><rect class="cls-1" x="42" y="32" width="2" height="2"/><path class="cls-1" d="M44,48H22a4,4,0,0,1-4-4V22a4,4,0,0,1,4-4H44a4,4,0,0,1,4,4V44A4,4,0,0,1,44,48ZM22,20a2,2,0,0,0-2,2V44a2,2,0,0,0,2,2H44a2,2,0,0,0,2-2V22a2,2,0,0,0-2-2Z"/></g></g></svg>